<svg width="47" height="47" viewBox="0 0 47 47" fill="none" xmlns="http://www.w3.org/2000/svg">
<g clip-path="url(#clip0_294_9223)">
<rect x="0.980469" y="0.669922" width="45.8148" height="45.8148" rx="22.9074" fill="#D0BCFE"/>
<path d="M29.3851 29.9919V28.1593C29.3851 27.1873 28.9989 26.255 28.3116 25.5677C27.6242 24.8803 26.692 24.4941 25.7199 24.4941H19.3058C18.3337 24.4941 17.4015 24.8803 16.7141 25.5677C16.0268 26.255 15.6406 27.1873 15.6406 28.1593V29.9919" stroke="#5547BF" stroke-width="1.83259" stroke-linecap="round" stroke-linejoin="round"/>
<path d="M22.5128 20.8294C24.5371 20.8294 26.178 19.1884 26.178 17.1642C26.178 15.14 24.5371 13.499 22.5128 13.499C20.4886 13.499 18.8477 15.14 18.8477 17.1642C18.8477 19.1884 20.4886 20.8294 22.5128 20.8294Z" stroke="#5547BF" stroke-width="1.83259" stroke-linecap="round" stroke-linejoin="round"/>
<path d="M30.3008 20.8297L32.1334 22.6623L35.7986 18.9971" stroke="#5547BF" stroke-width="1.83259" stroke-linecap="round" stroke-linejoin="round"/>
</g>
<defs>
<clipPath id="clip0_294_9223">
<rect x="0.980469" y="0.669922" width="45.8148" height="45.8148" rx="22.9074" fill="white"/>
</clipPath>
</defs>
</svg>
