<svg width="22" height="23" viewBox="0 0 22 23" fill="none" xmlns="http://www.w3.org/2000/svg">
<path d="M4.73199 17.9351H6.0217L14.8687 9.0881L13.5789 7.79839L4.73199 16.6453V17.9351ZM2.92188 19.7452V15.8987L14.8687 3.97451C15.0497 3.80858 15.2495 3.68037 15.4683 3.58986C15.687 3.49935 15.917 3.4541 16.1584 3.4541C16.3997 3.4541 16.6335 3.49935 16.8598 3.58986C17.0861 3.68037 17.2822 3.81613 17.4481 3.99714L18.6925 5.26422C18.8735 5.43015 19.0055 5.62624 19.0885 5.85251C19.1715 6.07877 19.2129 6.30504 19.2129 6.5313C19.2129 6.77265 19.1715 7.00269 19.0885 7.22141C19.0055 7.44013 18.8735 7.64 18.6925 7.82101L6.76838 19.7452H2.92188ZM14.2125 8.45456L13.5789 7.79839L14.8687 9.0881L14.2125 8.45456Z" fill="#DDE4E1"/>
</svg>
