<svg width="33" height="102" viewBox="0 0 33 102" fill="none" xmlns="http://www.w3.org/2000/svg">
<path opacity="0.17" d="M3 45.155C3 40.1207 4.84742 33.9716 7.8601 27.785C10.8514 21.6424 14.8643 15.7233 18.903 11.1996C20.9214 8.9387 22.904 7.07389 24.7225 5.71253C26.58 4.32204 28.0846 3.59417 29.1571 3.36366C30.1177 3.15718 30.4194 3.38418 30.5977 3.56325C30.949 3.9161 31.5631 4.95453 31.7786 7.49741C32.0981 11.2681 32.0287 25.9684 31.8411 43.1571C31.7586 50.7129 31.6543 58.708 31.5543 66.3687C31.4287 75.9951 31.31 85.0933 31.2502 92.1275C31.2328 94.1773 30.8204 95.3986 30.3346 96.1571C29.8689 96.8842 29.171 97.445 28.0636 97.8782C25.5814 98.8493 21.912 98.9052 16.8387 98.9052C9.19579 98.9052 3 92.7094 3 85.0665V45.155Z" stroke="#D0BCFE" stroke-width="6"/>
</svg>
