<svg width="247" height="748" viewBox="0 0 247 748" fill="none" xmlns="http://www.w3.org/2000/svg">
<path d="M92.2992 32.5C92.2992 50.4493 106.268 65 123.499 65C140.731 65 154.699 50.4493 154.699 32.5C154.699 14.5507 140.731 0 123.499 0C106.268 0 92.2992 14.5507 92.2992 32.5Z" fill="#82D5C7" fill-opacity="0.5"/>
<path d="M93.6004 183.845C93.6004 158.23 109.347 135.09 132.939 132.909C139.422 132.31 144.757 132.569 148.348 133.789C150.08 134.378 151.147 135.105 151.788 135.823C152.375 136.481 152.834 137.38 152.952 138.832C153.607 146.922 153.454 178.48 153.069 215.019C152.906 230.546 152.702 246.906 152.506 262.595C152.245 283.598 151.998 303.401 151.883 318.398C151.851 322.619 151.003 325.15 149.964 326.733C148.966 328.254 147.471 329.39 145.138 330.23C142.706 331.107 139.556 331.589 135.57 331.816C132.137 332.011 128.39 332.007 124.242 332.002C123.579 332.001 122.907 332 122.223 332C106.415 332 93.6004 319.186 93.6004 303.378V183.845Z" stroke="#BBB5E5" stroke-width="10.4"/>
<path d="M94.9008 442C94.9008 457.796 107.705 470.6 123.501 470.6C139.296 470.6 152.101 457.796 152.101 442C152.101 426.205 139.296 413.4 123.501 413.4C107.705 413.4 94.9008 426.205 94.9008 442Z" stroke="#82D5C7" stroke-width="10.4"/>
<path d="M12.8695 556.62C22.7128 555.659 36.4721 555.25 47.787 558.433C81.1768 567.827 88.8866 618.635 123.45 618.423C157.784 618.212 187.166 557.931 187.166 557.931C187.166 557.931 194.079 540.657 219.82 538.83C245.561 537.002 247.569 536.977 246.9 570.391C246.433 593.688 246.617 607.848 246.771 614.287C246.833 616.884 245.664 619.364 243.591 620.942L82.0874 743.909C77.9204 747.081 72.8209 748.8 67.5757 748.8H15.929C7.13166 748.8 0 741.698 0 732.936V571.384C0 563.847 5.33714 557.355 12.8695 556.62Z" fill="#5547BF" fill-opacity="0.7"/>
</svg>
