<svg width="194" height="41" viewBox="0 0 194 41" fill="none" xmlns="http://www.w3.org/2000/svg">
<path d="M0.472294 7.55915C0.472294 9.93741 2.32314 11.8654 4.60626 11.8654C6.88939 11.8654 8.74023 9.93741 8.74023 7.55915C8.74023 5.18089 6.88939 3.25293 4.60626 3.25293C2.32314 3.25293 0.472294 5.18089 0.472294 7.55915Z" fill="#5547BF" fill-opacity="0.7"/>
<path d="M25.2769 19.3452C25.2769 15.9512 27.3633 12.8851 30.4892 12.5963C31.3482 12.5169 32.055 12.5511 32.5309 12.7129C32.7604 12.7909 32.9018 12.8871 32.9867 12.9823C33.0645 13.0695 33.1253 13.1886 33.1409 13.381C33.2276 14.453 33.2074 18.6343 33.1565 23.4758C33.1348 25.533 33.1078 27.7005 33.0819 29.7793C33.0472 32.5622 33.0145 35.1861 32.9993 37.1734C32.995 37.7326 32.8827 38.0679 32.7451 38.2777C32.6128 38.4793 32.4147 38.6297 32.1055 38.7411C31.7833 38.8572 31.366 38.9211 30.8378 38.9512C30.383 38.9771 29.8865 38.9765 29.3369 38.9759C29.2491 38.9758 29.1599 38.9756 29.0694 38.9756C26.9748 38.9756 25.2769 37.2777 25.2769 35.1832V19.3452Z" stroke="#D0BCFE" stroke-width="1.37799"/>
<path d="M25.9645 5.32026C25.9645 7.41313 27.6611 9.10974 29.754 9.10974C31.8468 9.10974 33.5434 7.41313 33.5434 5.32026C33.5434 3.2274 31.8468 1.53079 29.754 1.53079C27.6611 1.53079 25.9645 3.2274 25.9645 5.32026Z" stroke="#D0BCFE" stroke-width="1.37799"/>
<path d="M2.86731 14.3068C4.17154 14.1794 5.99462 14.1253 7.49384 14.5471C11.918 15.7917 12.9395 22.5237 17.5191 22.4956C22.0684 22.4677 25.9614 14.4805 25.9614 14.4805C25.9614 14.4805 26.8775 12.1918 30.2881 11.9496C33.6987 11.7075 33.9648 11.7042 33.8761 16.1315C33.8142 19.2183 33.8386 21.0945 33.8591 21.9476C33.8673 22.2918 33.7123 22.6203 33.4377 22.8294L12.0386 39.1224C11.4865 39.5428 10.8108 39.7705 10.1158 39.7705H3.27269C2.10705 39.7705 1.16211 38.8294 1.16211 37.6686V16.263C1.16211 15.2643 1.86928 14.4042 2.86731 14.3068Z" fill="#5547BF" fill-opacity="0.7"/>
<path d="M43.362 15.0978C43.362 13.7543 44.4299 12.583 45.7735 12.583H50.4242L55.1438 30.4279L59.7256 12.583H66.8567V36.0088H62.3438V17.0959L57.5553 36.0088H52.6634L47.8749 17.0959V36.0088H43.362V15.0978ZM73.9836 24.6852H82.6563C82.2854 23.7252 81.6963 23.0052 80.889 22.5252C80.0818 22.0452 79.2308 21.8052 78.3363 21.8052C77.2454 21.8052 76.329 22.0888 75.5872 22.6561C74.8672 23.2015 74.3327 23.8779 73.9836 24.6852ZM87.4999 28.3179H73.8854C74.1472 29.3652 74.6818 30.2052 75.489 30.8379C76.2963 31.4488 77.289 31.7542 78.4672 31.7542C79.4708 31.7542 80.2672 31.5688 80.8563 31.1979C81.4672 30.827 81.9254 30.3797 82.2308 29.8561H87.0745C86.3545 31.6888 85.2636 33.1724 83.8018 34.307C82.3399 35.4197 80.5618 35.9761 78.4672 35.9761C77.2018 35.9761 76.0127 35.7361 74.8999 35.2561C73.7872 34.7761 72.8054 34.1215 71.9545 33.2924C71.1254 32.4633 70.4708 31.4924 69.9908 30.3797C69.5108 29.267 69.2708 28.067 69.2708 26.7797C69.2708 25.5361 69.5108 24.3579 69.9908 23.2452C70.4708 22.1106 71.1254 21.1288 71.9545 20.2997C72.8054 19.4706 73.7872 18.8161 74.8999 18.3361C76.0127 17.8342 77.2018 17.5833 78.4672 17.5833C79.6454 17.5833 80.889 17.867 82.1981 18.4342C83.5072 19.0015 84.6418 19.8633 85.6018 21.0197C86.2999 21.9142 86.8345 22.9615 87.2054 24.1615C87.5763 25.3615 87.6745 26.747 87.4999 28.3179ZM97.9181 21.5399C95.8856 21.5399 94.8521 22.47 94.8176 24.3648V36.0088H90.1669V25.2949C90.1669 20.093 92.7851 17.5093 97.987 17.5093C100.33 17.5093 102.121 18.026 103.43 19.0595C104.739 18.0605 106.531 17.5782 108.873 17.5782C114.075 17.5782 116.659 20.1619 116.624 25.3638V36.0777H114.247C112.731 35.9743 111.974 35.2509 111.974 33.804V24.4337C111.87 22.5389 110.837 21.6088 108.804 21.6088C106.772 21.6088 105.738 22.5389 105.704 24.4337V36.0088H101.087V24.3648C100.984 22.47 99.9506 21.5399 97.9181 21.5399ZM119.24 26.6488C119.24 25.3833 119.48 24.1833 119.96 23.0488C120.44 21.9142 121.105 20.9324 121.956 20.1033C122.785 19.2524 123.767 18.587 124.902 18.107C126.036 17.6052 127.247 17.3542 128.535 17.3542C129.8 17.3542 131 17.6052 132.135 18.107C133.269 18.587 134.251 19.2524 135.08 20.1033C135.931 20.9324 136.596 21.9142 137.076 23.0488C137.578 24.1833 137.829 25.3833 137.829 26.6488C137.829 27.9361 137.578 29.147 137.076 30.2815C136.596 31.4161 135.931 32.3979 135.08 33.227C134.251 34.0779 133.269 34.7433 132.135 35.2233C131 35.7033 129.8 35.9433 128.535 35.9433C127.247 35.9433 126.036 35.7033 124.902 35.2233C123.767 34.7433 122.785 34.0779 121.956 33.227C121.105 32.3979 120.44 31.4161 119.96 30.2815C119.48 29.147 119.24 27.9361 119.24 26.6488ZM123.691 26.6488C123.691 27.347 123.811 27.9906 124.051 28.5797C124.291 29.1688 124.629 29.6815 125.065 30.1179C125.502 30.5542 126.015 30.8924 126.604 31.1324C127.193 31.3724 127.836 31.4924 128.535 31.4924C129.211 31.4924 129.844 31.3724 130.433 31.1324C131.022 30.8924 131.535 30.5542 131.971 30.1179C132.407 29.6815 132.756 29.1688 133.018 28.5797C133.28 27.9906 133.411 27.347 133.411 26.6488C133.411 25.9724 133.28 25.3397 133.018 24.7506C132.756 24.1615 132.407 23.6488 131.971 23.2124C131.535 22.7761 131.022 22.427 130.433 22.1652C129.844 21.9033 129.211 21.7724 128.535 21.7724C127.836 21.7724 127.193 21.9033 126.604 22.1652C126.015 22.427 125.502 22.7761 125.065 23.2124C124.629 23.6488 124.291 24.1615 124.051 24.7506C123.811 25.3397 123.691 25.9724 123.691 26.6488ZM140.201 36.0088V26.604C140.339 20.7131 143.474 17.7849 149.572 17.7849H150.226V22.5389H148.676C146.127 22.5389 144.852 23.8825 144.852 26.5351V36.0088H140.201ZM156.721 8.44899C157.112 8.44899 157.41 8.54085 157.617 8.72459C157.824 8.90832 157.927 9.16095 157.927 9.48248C157.927 9.71215 157.904 9.88439 157.858 9.99923L156.653 14.0987C156.4 14.8796 155.883 15.27 155.102 15.27H154.689C154.299 15.27 153.988 15.1782 153.759 14.9944C153.552 14.8107 153.449 14.5581 153.449 14.2365C153.449 14.0069 153.472 13.8346 153.518 13.7198L154.758 9.58583C155.01 8.82794 155.527 8.44899 156.308 8.44899H156.721Z" fill="#5547BF"/>
<path d="M175.071 17.7849V28.7399C175.071 31.8748 174.279 33.9418 172.66 34.9408C171.04 35.871 169.249 36.3533 167.285 36.3533C165.391 36.3533 163.703 35.8365 162.118 34.803C160.533 33.804 159.741 31.8059 159.741 28.7399V17.7849H164.323V29.67C164.323 31.7026 165.356 32.7016 167.423 32.7016C169.49 32.7016 170.524 31.7026 170.524 29.67V20.0586C170.489 18.5428 171.213 17.7849 172.728 17.7849H175.071ZM181.235 30.0145C181.339 32.0126 182.785 32.7016 185.025 32.7016C186.954 32.7016 187.918 32.1504 187.918 30.9791C187.918 30.049 186.334 29.2911 183.199 28.7399C179.168 28.0164 177.101 26.2251 177.067 23.3657C177.067 19.4385 180.167 17.5782 184.336 17.5093C186.678 17.5093 188.539 18.026 189.916 19.0595C191.26 20.1275 191.983 21.6088 192.087 23.5035H189.193C188.125 23.4691 187.436 23.0901 187.161 22.3667C186.85 21.5743 185.92 21.1265 184.405 21.1265C182.613 21.1265 181.717 21.6088 181.717 22.5389C181.717 23.4691 182.889 24.1925 185.266 24.6404C188.366 25.2605 190.399 26.0528 191.398 26.983C192.259 27.8786 192.672 28.981 192.672 30.2212C192.672 34.6997 189.159 36.3533 184.336 36.3533C181.786 36.3533 179.857 35.8021 178.617 34.7341C177.239 33.7007 176.55 32.116 176.55 30.0145H181.235Z" fill="#D0BCFE"/>
</svg>
