<svg width="18" height="18" viewBox="0 0 18 18" fill="none" xmlns="http://www.w3.org/2000/svg">
<circle cx="9" cy="9" r="9" fill="#42102B"/>
<mask id="mask0_1054_9306" style="mask-type:alpha" maskUnits="userSpaceOnUse" x="3" y="3" width="12" height="12">
<rect x="3.375" y="3.375" width="11.25" height="11.25" fill="#D9D9D9"/>
</mask>
<g mask="url(#mask0_1054_9306)">
<path d="M10.5469 11.2031L11.2031 10.5469L9.46875 8.8125V6.65625H8.53125V9.1875L10.5469 11.2031ZM9 13.6875C8.35156 13.6875 7.74219 13.5645 7.17188 13.3184C6.60156 13.0723 6.10547 12.7383 5.68359 12.3164C5.26172 11.8945 4.92773 11.3984 4.68164 10.8281C4.43555 10.2578 4.3125 9.64844 4.3125 9C4.3125 8.35156 4.43555 7.74219 4.68164 7.17188C4.92773 6.60156 5.26172 6.10547 5.68359 5.68359C6.10547 5.26172 6.60156 4.92773 7.17188 4.68164C7.74219 4.43555 8.35156 4.3125 9 4.3125C9.64844 4.3125 10.2578 4.43555 10.8281 4.68164C11.3984 4.92773 11.8945 5.26172 12.3164 5.68359C12.7383 6.10547 13.0723 6.60156 13.3184 7.17188C13.5645 7.74219 13.6875 8.35156 13.6875 9C13.6875 9.64844 13.5645 10.2578 13.3184 10.8281C13.0723 11.3984 12.7383 11.8945 12.3164 12.3164C11.8945 12.7383 11.3984 13.0723 10.8281 13.3184C10.2578 13.5645 9.64844 13.6875 9 13.6875ZM9 12.75C10.0391 12.75 10.9238 12.3848 11.6543 11.6543C12.3848 10.9238 12.75 10.0391 12.75 9C12.75 7.96094 12.3848 7.07617 11.6543 6.3457C10.9238 5.61523 10.0391 5.25 9 5.25C7.96094 5.25 7.07617 5.61523 6.3457 6.3457C5.61523 7.07617 5.25 7.96094 5.25 9C5.25 10.0391 5.61523 10.9238 6.3457 11.6543C7.07617 12.3848 7.96094 12.75 9 12.75Z" fill="#E396C0"/>
</g>
</svg>
