<svg width="38" height="38" viewBox="0 0 38 38" fill="none" xmlns="http://www.w3.org/2000/svg">
<rect x="0.514648" y="0.49707" width="36.6519" height="36.6519" rx="18.3259" fill="#006B5F"/>
<path fill-rule="evenodd" clip-rule="evenodd" d="M24.339 15.1579C24.339 18.1943 21.8775 20.6557 18.8412 20.6557C15.8049 20.6557 13.3434 18.1943 13.3434 15.1579C13.3434 12.1216 15.8049 9.66016 18.8412 9.66016C21.8775 9.66016 24.339 12.1216 24.339 15.1579ZM22.5064 15.1579C22.5064 17.1822 20.8654 18.8231 18.8412 18.8231C16.817 18.8231 15.176 17.1822 15.176 15.1579C15.176 13.1337 16.817 11.4928 18.8412 11.4928C20.8654 11.4928 22.5064 13.1337 22.5064 15.1579Z" fill="white"/>
<path d="M18.8412 23.4046C12.9087 23.4046 7.85414 26.9126 5.92871 31.8273C6.39776 32.293 6.89187 32.7336 7.40883 33.1467C8.8426 28.6346 13.3404 25.2372 18.8412 25.2372C24.342 25.2372 28.8398 28.6346 30.2736 33.1467C30.7906 32.7336 31.2847 32.293 31.7537 31.8273C29.8283 26.9126 24.7737 23.4046 18.8412 23.4046Z" fill="white"/>
</svg>
