<svg width="59" height="63" viewBox="0 0 59 63" fill="none" xmlns="http://www.w3.org/2000/svg">
<path id="Vector" d="M39.4046 62.2044H32.8785V55.2928H39.4046V62.2044ZM32.8785 38.0138H26.3524V55.2928H32.8785V38.0138ZM58.9829 31.1022H52.4568V44.9254H58.9829V31.1022ZM52.4568 24.1906H45.9307V31.1022H52.4568V24.1906ZM13.3002 31.1022H6.77414V38.0138H13.3002V31.1022ZM6.77414 24.1906H0.248047V31.1022H6.77414V24.1906ZM29.6155 6.9116H36.1415V0H29.6155V6.9116ZM5.14261 5.1837V15.5511H14.9318V5.1837H5.14261ZM19.8263 20.7348H0.248047V0H19.8263V20.7348ZM5.14261 46.6533V57.0207H14.9318V46.6533H5.14261ZM19.8263 62.2044H0.248047V41.4696H19.8263V62.2044ZM44.2992 5.1837V15.5511H54.0883V5.1837H44.2992ZM58.9829 20.7348H39.4046V0H58.9829V20.7348ZM52.4568 55.2928V44.9254H39.4046V51.837H45.9307V62.2044H58.9829V55.2928H52.4568ZM45.9307 31.1022H32.8785V38.0138H45.9307V31.1022ZM32.8785 24.1906H13.3002V31.1022H19.8263V38.0138H26.3524V31.1022H32.8785V24.1906ZM36.1415 20.7348V13.8232H29.6155V6.9116H23.0894V20.7348H36.1415ZM12.4845 7.77555H7.5899V12.9593H12.4845V7.77555ZM12.4845 49.2452H7.5899V54.4289H12.4845V49.2452ZM51.641 7.77555H46.7464V12.9593H51.641V7.77555Z" fill="#D0BCFE"/>
</svg>
