<svg width="39" height="58" viewBox="0 0 39 58" fill="none" xmlns="http://www.w3.org/2000/svg">
<path opacity="0.7" d="M18.6481 57.5049C15.86 57.5049 13.201 56.9498 10.6711 55.8397C8.14111 54.7039 5.93386 53.1162 4.04931 51.0767C2.19058 49.0373 0.861069 46.6364 0.0607809 43.8741L10.2838 41.1635C10.8259 43.2029 11.8844 44.7906 13.4592 45.9265C15.0597 47.0366 16.7894 47.5916 18.6481 47.5916C20.2487 47.5916 21.7073 47.2044 23.0239 46.4299C24.3663 45.6554 25.4248 44.6099 26.1992 43.2933C26.9995 41.9767 27.3997 40.5181 27.3997 38.9175C27.3997 36.5167 26.5736 34.4643 24.9214 32.7605C23.295 31.0308 21.2039 30.166 18.6481 30.166C17.8736 30.166 17.125 30.2822 16.4022 30.5145C15.6793 30.721 14.9823 31.0179 14.3111 31.4051L9.58679 23.1183L27.3222 8.4033L28.0967 10.6493H2.2293V0.736024H37.0806V10.6493L23.295 23.9702L23.2175 21.0272C26.4187 21.5177 29.1164 22.6407 31.3107 24.3962C33.5309 26.1258 35.2089 28.2685 36.3448 30.8243C37.5065 33.3542 38.0874 36.052 38.0874 38.9175C38.0874 42.4285 37.1967 45.5909 35.4155 48.4048C33.6342 51.1929 31.272 53.4131 28.329 55.0653C25.386 56.6917 22.1591 57.5049 18.6481 57.5049Z" fill="#9FE9E4"/>
</svg>
