<svg width="48" height="69" viewBox="0 0 48 69" fill="none" xmlns="http://www.w3.org/2000/svg">
<path d="M0.28835 68.8909V57.8624L28.514 32.8145C30.6324 30.9452 32.1278 29.185 33.0002 27.5338C33.8725 25.8827 34.3086 24.3405 34.3086 22.9075C34.3086 20.8513 33.8881 19.0288 33.0469 17.4399C32.2057 15.8199 31.0219 14.5582 29.4953 13.6547C27.9688 12.7201 26.1774 12.2528 24.1212 12.2528C21.9716 12.2528 20.0712 12.7512 18.42 13.7482C16.8 14.7139 15.5383 16.0068 14.6348 17.6268C13.7313 19.2157 13.3108 20.9447 13.3731 22.814H0.28835C0.28835 18.2032 1.30086 14.2155 3.32587 10.8508C5.35089 7.48617 8.17034 4.88481 11.7842 3.04672C15.3981 1.20863 19.6039 0.289581 24.4016 0.289581C28.7944 0.289581 32.7198 1.25536 36.1779 3.18691C39.6671 5.08731 42.4087 7.75098 44.4026 11.1779C46.3964 14.6049 47.3934 18.577 47.3934 23.0944C47.3934 26.4279 46.926 29.2006 45.9914 31.4125C45.0568 33.5933 43.6704 35.6183 41.8323 37.4876C39.9943 39.3257 37.7356 41.413 35.0563 43.7496L16.8312 59.7316L15.8031 56.9277H47.3934V68.8909H0.28835Z" fill="#82D5C7"/>
</svg>
