<svg width="48" height="70" viewBox="0 0 48 70" fill="none" xmlns="http://www.w3.org/2000/svg">
<path d="M0.323506 69.3929V58.3643L28.5491 33.3164C30.6676 31.4472 32.163 29.687 33.0353 28.0358C33.9076 26.3846 34.3438 24.8425 34.3438 23.4094C34.3438 21.3532 33.9232 19.5307 33.082 17.9419C32.2409 16.3219 31.057 15.0601 29.5305 14.1566C28.0039 13.222 26.2126 12.7547 24.1564 12.7547C22.0068 12.7547 20.1064 13.2532 18.4552 14.2501C16.8352 15.2159 15.5734 16.5088 14.67 18.1288C13.7665 19.7176 13.3459 21.4467 13.4082 23.3159H0.323506C0.323506 18.7051 1.33601 14.7174 3.36103 11.3528C5.38605 7.98813 8.20549 5.38676 11.8194 3.54867C15.4332 1.71058 19.639 0.791534 24.4368 0.791534C28.8295 0.791534 32.7549 1.75731 36.213 3.68886C39.7023 5.58926 42.4439 8.25294 44.4377 11.6799C46.4316 15.1068 47.4285 19.079 47.4285 23.5963C47.4285 26.9298 46.9612 29.7025 46.0266 31.9145C45.092 34.0953 43.7056 36.1203 41.8675 37.9895C40.0294 39.8276 37.7707 41.9149 35.0915 44.2515L16.8663 60.2336L15.8382 57.4297H47.4285V69.3929H0.323506Z" fill="#776BCB"/>
</svg>
