<svg width="91" height="133" viewBox="0 0 91 133" fill="none" xmlns="http://www.w3.org/2000/svg">
<path opacity="0.2" d="M0.627819 132.016V110.915L54.6332 62.9897C58.6866 59.4132 61.5478 56.0453 63.2169 52.886C64.8859 49.7268 65.7205 46.7761 65.7205 44.0341C65.7205 40.1 64.9157 36.6129 63.3063 33.5728C61.6969 30.4732 59.4317 28.059 56.5109 26.3304C53.5901 24.5421 50.1626 23.648 46.2284 23.648C42.1154 23.648 38.4793 24.6017 35.32 26.5092C32.2204 28.3571 29.8062 30.8308 28.0776 33.9305C26.3489 36.9705 25.5442 40.2788 25.6634 43.8553H0.627819C0.627819 35.0332 2.5651 27.4033 6.43966 20.9656C10.3142 14.5279 15.7088 9.55053 22.6234 6.03363C29.538 2.51672 37.5852 0.758264 46.7649 0.758264C55.1697 0.758264 62.6804 2.60613 69.297 6.30186C75.9731 9.93799 81.2187 15.0345 85.0337 21.5915C88.8486 28.1484 90.7561 35.7485 90.7561 44.3918C90.7561 50.7699 89.862 56.0751 88.0737 60.3073C86.2854 64.4799 83.6329 68.3545 80.1159 71.931C76.599 75.4479 72.2774 79.4417 67.1511 83.9123L32.28 114.492L30.3129 109.127H90.7561V132.016H0.627819Z" fill="#D0BCFE"/>
</svg>
