<svg width="101" height="37" viewBox="0 0 101 37" fill="none" xmlns="http://www.w3.org/2000/svg">
<g clip-path="url(#clip0_320_6052)">
<rect x="0.806641" y="0.578125" width="100" height="36" rx="18" fill="#D0BCFE"/>
<path d="M28.6736 24.0713C27.8313 24.0713 27.1172 23.7783 26.5313 23.1924C25.9453 22.6065 25.6523 21.8924 25.6523 21.0501V15.2822C25.6523 14.678 25.8675 14.1607 26.2978 13.7304C26.7281 13.3001 27.2454 13.085 27.8496 13.085C28.4539 13.085 28.9711 13.3001 29.4014 13.7304C29.8317 14.1607 30.0469 14.678 30.0469 15.2822V20.5008C30.0469 20.8853 29.9141 21.2103 29.6486 21.4758C29.3831 21.7413 29.0581 21.874 28.6736 21.874C28.2891 21.874 27.9641 21.7413 27.6986 21.4758C27.433 21.2103 27.3003 20.8853 27.3003 20.5008V15.2822H28.1243V20.5008C28.1243 20.6564 28.1769 20.7869 28.2822 20.8921C28.3875 20.9974 28.518 21.0501 28.6736 21.0501C28.8292 21.0501 28.9597 20.9974 29.065 20.8921C29.1703 20.7869 29.2229 20.6564 29.2229 20.5008V15.2822C29.2229 14.8977 29.0902 14.5727 28.8247 14.3072C28.5592 14.0417 28.2341 13.9089 27.8496 13.9089C27.4651 13.9089 27.1401 14.0417 26.8746 14.3072C26.6091 14.5727 26.4763 14.8977 26.4763 15.2822V21.0501C26.4763 21.6543 26.6915 22.1716 27.1218 22.6019C27.5521 23.0322 28.0693 23.2473 28.6736 23.2473C29.2778 23.2473 29.7951 23.0322 30.2254 22.6019C30.6557 22.1716 30.8709 21.6543 30.8709 21.0501V15.2822H31.6948V21.0501C31.6948 21.8924 31.4019 22.6065 30.8159 23.1924C30.23 23.7783 29.5159 24.0713 28.6736 24.0713Z" fill="#381E72"/>
<path d="M43.9423 14.7882V22.0781H42.6856V14.7882H43.9423ZM46.6641 17.7623V22.0781H45.4575V16.6608H46.594L46.6641 17.7623ZM46.4689 19.1692L46.0583 19.1642C46.0583 18.7903 46.105 18.4449 46.1985 18.1278C46.292 17.8107 46.4288 17.5353 46.6091 17.3016C46.7893 17.0646 47.0129 16.8827 47.28 16.7559C47.5503 16.6257 47.8624 16.5606 48.2162 16.5606C48.4632 16.5606 48.6886 16.5973 48.8922 16.6708C49.0991 16.7409 49.2777 16.8527 49.4279 17.0062C49.5814 17.1598 49.6983 17.3567 49.7784 17.597C49.8618 17.8374 49.9035 18.1278 49.9035 18.4682V22.0781H48.6969V18.5734C48.6969 18.3097 48.6568 18.1027 48.5767 17.9525C48.5 17.8023 48.3881 17.6955 48.2413 17.6321C48.0978 17.5653 47.9259 17.5319 47.7256 17.5319C47.4986 17.5319 47.305 17.5753 47.1448 17.6621C46.9879 17.7489 46.8594 17.8674 46.7593 18.0176C46.6591 18.1678 46.5857 18.3414 46.539 18.5383C46.4922 18.7352 46.4689 18.9455 46.4689 19.1692ZM49.8284 18.8487L49.2627 18.9739C49.2627 18.6468 49.3077 18.338 49.3979 18.0476C49.4913 17.7539 49.6265 17.4969 49.8034 17.2766C49.9836 17.053 50.2056 16.8777 50.4693 16.7509C50.733 16.624 51.0351 16.5606 51.3755 16.5606C51.6526 16.5606 51.8996 16.599 52.1165 16.6758C52.3368 16.7492 52.5238 16.866 52.6773 17.0263C52.8309 17.1865 52.9477 17.3951 53.0278 17.6521C53.1079 17.9058 53.1479 18.2129 53.1479 18.5734V22.0781H51.9363V18.5684C51.9363 18.2947 51.8962 18.0827 51.8161 17.9325C51.7394 17.7823 51.6292 17.6788 51.4857 17.6221C51.3422 17.562 51.1703 17.5319 50.97 17.5319C50.7831 17.5319 50.6178 17.567 50.4743 17.6371C50.3341 17.7038 50.2156 17.799 50.1188 17.9225C50.022 18.0426 49.9486 18.1812 49.8985 18.338C49.8518 18.4949 49.8284 18.6652 49.8284 18.8487ZM55.6745 17.7022V24.161H54.4679V16.6608H55.5794L55.6745 17.7022ZM59.2043 19.3194V19.4245C59.2043 19.8184 59.1576 20.1839 59.0641 20.521C58.974 20.8548 58.8388 21.1469 58.6586 21.3972C58.4817 21.6442 58.263 21.8361 58.0027 21.973C57.7423 22.1098 57.4419 22.1783 57.1015 22.1783C56.7643 22.1783 56.4689 22.1165 56.2153 21.993C55.9649 21.8662 55.753 21.6876 55.5794 21.4573C55.4058 21.227 55.2656 20.9566 55.1588 20.6462C55.0553 20.3324 54.9819 19.9886 54.9385 19.6148V19.2092C54.9819 18.812 55.0553 18.4515 55.1588 18.1278C55.2656 17.804 55.4058 17.5253 55.5794 17.2916C55.753 17.058 55.9649 16.8777 56.2153 16.7509C56.4656 16.624 56.7577 16.5606 57.0914 16.5606C57.4319 16.5606 57.734 16.6274 57.9977 16.7609C58.2614 16.8911 58.4833 17.078 58.6636 17.3217C58.8438 17.562 58.979 17.8524 59.0691 18.1928C59.1593 18.53 59.2043 18.9055 59.2043 19.3194ZM57.9977 19.4245V19.3194C57.9977 19.069 57.9743 18.8371 57.9276 18.6234C57.8809 18.4065 57.8074 18.2162 57.7073 18.0527C57.6071 17.8891 57.4786 17.7623 57.3218 17.6721C57.1682 17.5787 56.983 17.5319 56.766 17.5319C56.5524 17.5319 56.3688 17.5687 56.2153 17.6421C56.0617 17.7122 55.9332 17.8107 55.8297 17.9375C55.7263 18.0643 55.6462 18.2129 55.5894 18.3831C55.5327 18.55 55.4926 18.7319 55.4692 18.9288V19.9002C55.5093 20.1405 55.5777 20.3608 55.6745 20.5611C55.7713 20.7613 55.9082 20.9216 56.0851 21.0417C56.2653 21.1585 56.4956 21.217 56.776 21.217C56.993 21.217 57.1782 21.1702 57.3318 21.0768C57.4853 20.9833 57.6105 20.8548 57.7073 20.6912C57.8074 20.5243 57.8809 20.3324 57.9276 20.1155C57.9743 19.8985 57.9977 19.6682 57.9977 19.4245ZM60.0736 19.4295V19.3144C60.0736 18.9238 60.1304 18.5617 60.2439 18.2279C60.3574 17.8908 60.5209 17.5987 60.7345 17.3517C60.9515 17.1014 61.2152 16.9078 61.5256 16.7709C61.8394 16.6307 62.1932 16.5606 62.5871 16.5606C62.9843 16.5606 63.3381 16.6307 63.6485 16.7709C63.9623 16.9078 64.2276 17.1014 64.4446 17.3517C64.6615 17.5987 64.8268 17.8908 64.9403 18.2279C65.0537 18.5617 65.1105 18.9238 65.1105 19.3144V19.4295C65.1105 19.8201 65.0537 20.1822 64.9403 20.516C64.8268 20.8498 64.6615 21.1419 64.4446 21.3922C64.2276 21.6392 63.9639 21.8328 63.6535 21.973C63.3431 22.1098 62.9909 22.1783 62.5971 22.1783C62.1999 22.1783 61.8444 22.1098 61.5306 21.973C61.2202 21.8328 60.9565 21.6392 60.7395 21.3922C60.5226 21.1419 60.3574 20.8498 60.2439 20.516C60.1304 20.1822 60.0736 19.8201 60.0736 19.4295ZM61.2803 19.3144V19.4295C61.2803 19.6732 61.3053 19.9035 61.3554 20.1205C61.4055 20.3374 61.4839 20.5277 61.5907 20.6912C61.6975 20.8548 61.8344 20.9833 62.0013 21.0768C62.1682 21.1702 62.3668 21.217 62.5971 21.217C62.8207 21.217 63.0143 21.1702 63.1779 21.0768C63.3448 20.9833 63.4816 20.8548 63.5884 20.6912C63.6952 20.5277 63.7737 20.3374 63.8237 20.1205C63.8771 19.9035 63.9038 19.6732 63.9038 19.4295V19.3144C63.9038 19.074 63.8771 18.8471 63.8237 18.6334C63.7737 18.4165 63.6936 18.2246 63.5834 18.0577C63.4766 17.8908 63.3397 17.7606 63.1729 17.6671C63.0093 17.5703 62.814 17.5219 62.5871 17.5219C62.3601 17.5219 62.1631 17.5703 61.9963 17.6671C61.8327 17.7606 61.6975 17.8908 61.5907 18.0577C61.4839 18.2246 61.4055 18.4165 61.3554 18.6334C61.3053 18.8471 61.2803 19.074 61.2803 19.3144ZM67.4068 17.6922V22.0781H66.2001V16.6608H67.3517L67.4068 17.6922ZM69.064 16.6257L69.054 17.7472C68.9806 17.7339 68.9004 17.7239 68.8137 17.7172C68.7302 17.7105 68.6468 17.7072 68.5633 17.7072C68.3564 17.7072 68.1745 17.7372 68.0176 17.7973C67.8607 17.8541 67.7289 17.9375 67.622 18.0476C67.5186 18.1545 67.4385 18.2846 67.3817 18.4382C67.325 18.5917 67.2916 18.7636 67.2816 18.9539L67.0062 18.9739C67.0062 18.6334 67.0396 18.318 67.1063 18.0276C67.1731 17.7372 67.2732 17.4819 67.4068 17.2616C67.5436 17.0413 67.7138 16.8694 67.9174 16.7459C68.1244 16.6224 68.3631 16.5606 68.6334 16.5606C68.7069 16.5606 68.7853 16.5673 68.8687 16.5807C68.9555 16.594 69.0206 16.609 69.064 16.6257ZM72.627 16.6608V17.542H69.5728V16.6608H72.627ZM70.454 15.334H71.6607V20.5811C71.6607 20.748 71.684 20.8765 71.7308 20.9666C71.7808 21.0534 71.8493 21.1118 71.936 21.1419C72.0228 21.1719 72.1246 21.1869 72.2415 21.1869C72.3249 21.1869 72.405 21.1819 72.4818 21.1719C72.5586 21.1619 72.6203 21.1519 72.667 21.1419L72.672 22.0631C72.5719 22.0931 72.4551 22.1198 72.3216 22.1432C72.1914 22.1666 72.0412 22.1783 71.871 22.1783C71.5939 22.1783 71.3486 22.1299 71.135 22.0331C70.9213 21.9329 70.7544 21.771 70.6343 21.5474C70.5141 21.3238 70.454 21.0267 70.454 20.6562V15.334Z" fill="#381E72"/>
</g>
<defs>
<clipPath id="clip0_320_6052">
<rect x="0.806641" y="0.578125" width="100" height="36" rx="18" fill="white"/>
</clipPath>
</defs>
</svg>
