<svg width="302" height="260" viewBox="0 0 302 260" fill="none" xmlns="http://www.w3.org/2000/svg">
<path opacity="0.05" d="M289.155 236.608C277.037 237.791 260.097 238.294 246.166 234.375C205.057 222.81 195.565 160.256 153.012 160.517C110.74 160.777 74.5664 234.993 74.5664 234.993C74.5664 234.993 66.0545 256.26 34.363 258.51C2.67163 260.76 0.19931 260.791 1.02368 219.653C1.59845 190.97 1.37177 173.536 1.18176 165.609C1.10513 162.411 2.5455 159.359 5.09738 157.416L203.936 6.02242C209.066 2.11624 215.345 -6.10352e-05 221.803 -6.10352e-05H285.389C296.22 -6.10352e-05 305 8.74434 305 19.5311V218.43C305 227.71 298.429 235.702 289.155 236.608Z" fill="#03867D" fill-opacity="0.7"/>
</svg>
