<svg width="87" height="260" viewBox="0 0 87 260" fill="none" xmlns="http://www.w3.org/2000/svg">
<path opacity="0.05" d="M80.0256 189.785C80.0256 221.322 60.639 249.811 31.5928 252.495C23.6113 253.233 17.0434 252.915 12.6213 251.412C10.4895 250.687 9.17561 249.793 8.3862 248.908C7.66352 248.099 7.09843 246.992 6.9538 245.204C6.14763 235.243 6.33546 196.39 6.8091 151.404C7.01037 132.288 7.26141 112.148 7.50218 92.8318C7.8245 66.9728 8.1284 42.5918 8.26978 24.1264C8.30956 18.9299 9.35252 15.8144 10.6317 13.8653C11.861 11.9922 13.7017 10.5941 16.5742 9.55913C19.568 8.48047 23.4462 7.88658 28.3542 7.60706C32.5797 7.36641 37.1934 7.3719 42.3001 7.37798C43.1161 7.37895 43.9446 7.37994 44.7862 7.37994C64.2484 7.37994 80.0256 23.1572 80.0256 42.6194V189.785Z" stroke="#D0BCFE" stroke-width="12.8042"/>
</svg>
