<svg width="119" height="102" viewBox="0 0 119 102" fill="none" xmlns="http://www.w3.org/2000/svg">
<path opacity="0.17" d="M6.20029 8.92105C10.9426 8.45569 17.5716 8.25769 23.0229 9.79944C39.1095 14.3491 42.8239 38.957 59.4758 38.8542C76.0175 38.7521 90.173 9.5562 90.173 9.5562C90.173 9.5562 93.5039 1.18999 105.905 0.304875C118.307 -0.580243 119.274 -0.592369 118.952 15.5911C118.727 26.8746 118.815 33.7326 118.89 36.851C118.92 38.1092 118.356 39.31 117.358 40.0744L39.5482 99.6308C37.5406 101.167 35.0838 102 32.5567 102H7.6743C3.4359 102 0 98.5601 0 94.3167V16.072C0 12.4213 2.57134 9.27716 6.20029 8.92105Z" fill="#41378C"/>
</svg>
