<svg width="46" height="47" viewBox="0 0 46 47" fill="none" xmlns="http://www.w3.org/2000/svg">
<circle cx="23.166" cy="23.4199" r="22.6572" fill="#14625C"/>
<path d="M31.5137 26.9445C30.9371 28.308 30.0353 29.5095 28.8871 30.444C27.739 31.3784 26.3793 32.0174 24.9272 32.305C23.475 32.5926 21.9745 32.5201 20.5568 32.0939C19.1391 31.6676 17.8474 30.9005 16.7947 29.8597C15.7419 28.8189 14.9602 27.5361 14.5177 26.1234C14.0753 24.7106 13.9857 23.2111 14.2567 21.7557C14.5277 20.3003 15.1511 18.9335 16.0724 17.7747C16.9937 16.6159 18.1848 15.7005 19.5416 15.1084" fill="#14625C"/>
<path d="M31.5137 26.9445C30.9371 28.308 30.0353 29.5095 28.8871 30.444C27.739 31.3784 26.3793 32.0174 24.9272 32.305C23.475 32.5926 21.9745 32.5201 20.5568 32.0939C19.1391 31.6676 17.8474 30.9005 16.7947 29.8597C15.7419 28.8189 14.9602 27.5361 14.5177 26.1234C14.0753 24.7106 13.9857 23.2111 14.2567 21.7557C14.5277 20.3003 15.1511 18.9335 16.0724 17.7747C16.9937 16.6159 18.1848 15.7005 19.5416 15.1084" stroke="#82D5C7" stroke-width="1.81258" stroke-linecap="round" stroke-linejoin="round"/>
<path d="M32.2289 23.4193C32.2289 22.2292 31.9945 21.0507 31.539 19.9511C31.0836 18.8516 30.416 17.8525 29.5744 17.0109C28.7329 16.1693 27.7338 15.5018 26.6342 15.0463C25.5347 14.5909 24.3562 14.3564 23.166 14.3564V23.4193H32.2289Z" fill="#14625C" stroke="#82D5C7" stroke-width="1.81258" stroke-linecap="round" stroke-linejoin="round"/>
</svg>
