<svg width="47" height="47" viewBox="0 0 47 47" fill="none" xmlns="http://www.w3.org/2000/svg">
<circle cx="23.7707" cy="23.6984" r="22.9074" fill="#41378C"/>
<path d="M32.2099 27.2637C31.6269 28.6423 30.7152 29.857 29.5543 30.8018C28.3935 31.7466 27.0188 32.3926 25.5506 32.6834C24.0824 32.9742 22.5653 32.9009 21.132 32.4699C19.6986 32.039 18.3927 31.2634 17.3283 30.2111C16.2639 29.1588 15.4735 27.8618 15.0262 26.4335C14.5789 25.0052 14.4883 23.489 14.7623 22.0176C15.0363 20.5461 15.6666 19.1642 16.598 17.9926C17.5295 16.8211 18.7338 15.8955 20.1056 15.2969" stroke="#D0BCFE" stroke-width="1.83259" stroke-linecap="round" stroke-linejoin="round"/>
<path d="M32.9325 23.6991C32.9325 22.4958 32.6955 21.3043 32.235 20.1926C31.7745 19.0809 31.0996 18.0708 30.2487 17.2199C29.3979 16.369 28.3878 15.6941 27.276 15.2336C26.1643 14.7731 24.9728 14.5361 23.7695 14.5361V23.6991H32.9325Z" stroke="#D0BCFE" stroke-width="1.83259" stroke-linecap="round" stroke-linejoin="round"/>
</svg>
