<svg width="38" height="38" viewBox="0 0 38 38" fill="none" xmlns="http://www.w3.org/2000/svg">
<rect x="0.513672" y="0.49707" width="36.6519" height="36.6519" rx="18.3259" fill="#4F378B"/>
<path fill-rule="evenodd" clip-rule="evenodd" d="M24.338 15.1579C24.338 18.1943 21.8766 20.6557 18.8402 20.6557C15.8039 20.6557 13.3424 18.1943 13.3424 15.1579C13.3424 12.1216 15.8039 9.66016 18.8402 9.66016C21.8766 9.66016 24.338 12.1216 24.338 15.1579ZM22.5054 15.1579C22.5054 17.1822 20.8645 18.8231 18.8402 18.8231C16.816 18.8231 15.175 17.1822 15.175 15.1579C15.175 13.1337 16.816 11.4928 18.8402 11.4928C20.8645 11.4928 22.5054 13.1337 22.5054 15.1579Z" fill="#EADDFF"/>
<path d="M18.8402 23.4046C12.9078 23.4046 7.85316 26.9126 5.92773 31.8273C6.39678 32.293 6.89089 32.7336 7.40786 33.1467C8.84162 28.6346 13.3394 25.2372 18.8402 25.2372C24.341 25.2372 28.8388 28.6346 30.2726 33.1467C30.7896 32.7336 31.2837 32.293 31.7527 31.8273C29.8273 26.9126 24.7727 23.4046 18.8402 23.4046Z" fill="#EADDFF"/>
</svg>
