<svg width="57" height="88" viewBox="0 0 57 88" fill="none" xmlns="http://www.w3.org/2000/svg">
<path d="M29.9729 90.8602C25.5193 90.8602 21.2719 89.9736 17.2307 88.2004C13.1895 86.386 9.66376 83.8499 6.65348 80.5922C3.68443 77.3345 1.56074 73.4995 0.282397 69.0872L16.6122 64.7573C17.4781 68.015 19.1688 70.5511 21.6843 72.3655C24.241 74.1387 27.0038 75.0253 29.9729 75.0253C32.5296 75.0253 34.8594 74.4067 36.9625 73.1696C39.1068 71.9325 40.7975 70.2624 42.0346 68.1593C43.313 66.0563 43.9521 63.7264 43.9521 61.1697C43.9521 57.3347 42.6326 54.0564 39.9934 51.3347C37.3955 48.5719 34.0553 47.1904 29.9729 47.1904C28.7358 47.1904 27.5399 47.376 26.3853 47.7471C25.2306 48.077 24.1173 48.5513 23.0451 49.1698L15.4988 35.9328L43.8284 12.4278L45.0655 16.0154H3.74629V0.180525H59.4159V16.0154L37.3955 37.2936L37.2718 32.5926C42.3851 33.3761 46.6944 35.1699 50.1995 37.974C53.7459 40.7369 56.4263 44.1595 58.2407 48.242C60.0963 52.2832 61.0242 56.5924 61.0242 61.1697C61.0242 66.7779 59.6015 71.8294 56.7562 76.3242C53.9108 80.7778 50.1377 84.3242 45.4367 86.9633C40.7357 89.5612 35.5811 90.8602 29.9729 90.8602Z" fill="#D0BCFE" fill-opacity="0.9"/>
</svg>
