<svg width="39" height="57" viewBox="0 0 39 57" fill="none" xmlns="http://www.w3.org/2000/svg">
<path opacity="0.7" d="M18.6833 57.0068C15.8952 57.0068 13.2362 56.4518 10.7062 55.3417C8.17627 54.2058 5.96902 52.6181 4.08447 50.5787C2.22574 48.5392 0.896225 46.1384 0.0959371 43.3761L10.319 40.6654C10.8611 42.7049 11.9196 44.2926 13.4943 45.4285C15.0949 46.5385 16.8245 47.0936 18.6833 47.0936C20.2839 47.0936 21.7424 46.7063 23.059 45.9319C24.4015 45.1574 25.4599 44.1118 26.2344 42.7952C27.0347 41.4786 27.4348 40.02 27.4348 38.4195C27.4348 36.0186 26.6087 33.9663 24.9565 32.2624C23.3301 30.5328 21.239 29.6679 18.6833 29.6679C17.9088 29.6679 17.1601 29.7841 16.4373 30.0164C15.7145 30.223 15.0174 30.5199 14.3462 30.9071L9.62195 22.6202L27.3574 7.90525L28.1318 10.1512H2.26446V0.237978H37.1157V10.1512L23.3301 23.4722L23.2527 20.5292C26.4538 21.0197 29.1516 22.1426 31.3459 23.8981C33.5661 25.6278 35.2441 27.7705 36.38 30.3262C37.5417 32.8562 38.1225 35.5539 38.1225 38.4195C38.1225 41.9304 37.2319 45.0928 35.4506 47.9068C33.6693 50.6949 31.3072 52.915 28.3642 54.5672C25.4212 56.1936 22.1942 57.0068 18.6833 57.0068Z" fill="#D0BCFE"/>
</svg>
