<svg width="247" height="749" viewBox="0 0 247 749" fill="none" xmlns="http://www.w3.org/2000/svg">
<path d="M154.701 716.3C154.701 698.351 140.732 683.8 123.501 683.8C106.269 683.8 92.3008 698.351 92.3008 716.3C92.3008 734.249 106.269 748.8 123.501 748.8C140.732 748.8 154.701 734.249 154.701 716.3Z" fill="#82D5C7"/>
<path d="M153.4 564.955C153.4 590.57 137.653 613.711 114.061 615.891C107.578 616.49 102.243 616.232 98.6516 615.011C96.92 614.422 95.8529 613.696 95.2117 612.977C94.6247 612.32 94.1657 611.42 94.0483 609.969C93.3935 601.878 93.546 570.32 93.9307 533.781C94.0942 518.254 94.2981 501.895 94.4937 486.205C94.7555 465.202 95.0023 445.4 95.1171 430.402C95.1495 426.181 95.9966 423.651 97.0356 422.068C98.0341 420.546 99.5291 419.411 101.862 418.57C104.294 417.694 107.444 417.211 111.43 416.984C114.863 416.789 118.61 416.793 122.758 416.798C123.421 416.799 124.093 416.8 124.777 416.8C140.585 416.8 153.4 429.615 153.4 445.423V564.955Z" stroke="#5547BF" stroke-width="10.4"/>
<path d="M152.099 306.8C152.099 291.005 139.295 278.2 123.499 278.2C107.704 278.2 94.8992 291.005 94.8992 306.8C94.8992 322.595 107.704 335.4 123.499 335.4C139.295 335.4 152.099 322.595 152.099 306.8Z" stroke="#BBB5E5" stroke-width="10.4"/>
<path d="M234.13 192.181C224.287 193.142 210.528 193.55 199.213 190.367C165.823 180.974 158.113 130.165 123.55 130.378C89.2158 130.588 59.8342 190.869 59.8342 190.869C59.8342 190.869 52.9205 208.143 27.1797 209.971C1.4389 211.798 -0.569168 211.823 0.100403 178.409C0.567245 155.112 0.383118 140.952 0.228806 134.514C0.16655 131.916 1.33647 129.436 3.40919 127.858L164.913 4.89172C169.08 1.71902 174.179 9.15527e-05 179.424 9.15527e-05H231.071C239.868 9.15527e-05 247 7.10257 247 15.864V177.416C247 184.954 241.663 191.445 234.13 192.181Z" fill="#82D5C7" fill-opacity="0.5"/>
</svg>
