<svg width="95" height="113" viewBox="0 0 95 113" fill="none" xmlns="http://www.w3.org/2000/svg">
<path d="M72.4028 48.6672C72.4028 44.0137 73.781 39.3737 76.2513 35.8725C78.7028 32.3979 82.1734 30.1023 86.4699 29.8402C88.3652 29.7246 89.7865 29.9148 90.6849 30.3448C91.4142 30.694 91.8427 31.1988 91.9157 32.2422C92.1452 35.5236 92.0818 48.5755 91.9431 63.3981C91.8904 69.031 91.8272 74.9004 91.7663 80.5473C91.6679 89.6839 91.5758 98.2379 91.5446 104.265C91.5373 105.669 91.2568 106.359 91.0039 106.709C90.7755 107.025 90.4064 107.293 89.6606 107.479C88.87 107.676 87.8299 107.737 86.4528 107.729C85.848 107.725 85.2135 107.709 84.5307 107.691C84.4501 107.689 84.3688 107.687 84.2869 107.685C83.5189 107.665 82.6998 107.646 81.8524 107.646C76.6336 107.646 72.4028 103.416 72.4028 98.1967V48.6672Z" stroke="#5547BF" stroke-width="4"/>
<path d="M72.4026 11.8325C72.4026 17.2628 76.8047 21.6649 82.235 21.6649C87.6654 21.6649 92.0675 17.2628 92.0675 11.8325C92.0675 6.40214 87.6654 2 82.235 2C76.8047 2 72.4026 6.40214 72.4026 11.8325Z" stroke="#5547BF" stroke-width="4"/>
<path d="M-7.62939e-06 15.9746C-7.62939e-06 22.5094 5.29757 27.807 11.8325 27.807C18.3673 27.807 23.6649 22.5094 23.6649 15.9746C23.6649 9.43966 18.3673 4.14209 11.8325 4.14209C5.29757 4.14209 -7.62939e-06 9.43966 -7.62939e-06 15.9746Z" fill="#31F4E6" fill-opacity="0.7"/>
<path d="M10.4721 34.4868C13.5661 34.3733 17.0776 34.5316 20.1149 35.3896C32.5163 38.8928 35.3798 57.841 48.217 57.7619C60.9692 57.6833 71.8819 35.2023 71.8819 35.2023C71.8819 35.2023 74.4497 28.7603 84.0102 28.0787C93.5706 27.3972 94.3165 27.3879 94.0678 39.8492C93.9166 47.4235 93.9492 52.4079 93.998 55.1526C94.0272 56.7902 93.2918 58.3552 91.9906 59.3499L34.5016 103.301C31.8856 105.301 28.6842 106.384 25.3913 106.384H12.3662C6.84336 106.384 2.36621 101.907 2.36621 96.3845V43.5534C2.36621 38.802 5.72397 34.661 10.4721 34.4868Z" fill="#31F4E6" fill-opacity="0.7"/>
</svg>
